<mxfile host="app.diagrams.net" modified="2021-12-11T06:31:12.605Z" agent="5.0 (Macintosh; Intel Mac OS X 10_15_7) AppleWebKit/537.36 (KHTML, like Gecko) Chrome/96.0.4664.93 Safari/537.36" etag="JqJ-IY4pd0NlpVPyJWxs" version="15.9.4" type="github">
  <diagram id="VdEK22f299ZA5-83XaRf" name="Page-1">
    <mxGraphModel dx="993" dy="771" grid="1" gridSize="10" guides="1" tooltips="1" connect="1" arrows="1" fold="1" page="1" pageScale="1" pageWidth="827" pageHeight="1169" math="0" shadow="0">
      <root>
        <mxCell id="0" />
        <mxCell id="1" parent="0" />
        <mxCell id="nesQBiQ6s94b8jtnVH0g-3" style="edgeStyle=orthogonalEdgeStyle;rounded=0;orthogonalLoop=1;jettySize=auto;html=1;" edge="1" parent="1" source="nesQBiQ6s94b8jtnVH0g-1" target="nesQBiQ6s94b8jtnVH0g-2">
          <mxGeometry relative="1" as="geometry" />
        </mxCell>
        <mxCell id="nesQBiQ6s94b8jtnVH0g-1" value="" style="ellipse;whiteSpace=wrap;html=1;" vertex="1" parent="1">
          <mxGeometry x="240" y="240" width="120" height="80" as="geometry" />
        </mxCell>
        <mxCell id="nesQBiQ6s94b8jtnVH0g-2" value="" style="shape=document;whiteSpace=wrap;html=1;boundedLbl=1;" vertex="1" parent="1">
          <mxGeometry x="354" y="520" width="120" height="80" as="geometry" />
        </mxCell>
      </root>
    </mxGraphModel>
  </diagram>
</mxfile>
